<svg width="200" height="200" xmlns="http://www.w3.org/2000/svg">        
    <path fill="white" opacity="1.000000" stroke="none" d=" M83.865829,64.404785   C80.199951,60.950104 77.416023,57.505894 78.196648,52.068211   C89.883270,52.721558 101.491035,51.282646 113.558525,52.974117   C106.011559,64.062943 93.445358,70.746162 83.865829,64.404785  z"/>
    <path fill="white" opacity="1.000000" stroke="none" d=" M151.000000,193.000000   C146.643097,193.000000 142.286194,193.000000 137.758087,192.659622   C136.769043,191.859833 135.989227,191.306747 135.126938,190.956863   C130.882492,189.234543 126.342072,188.045166 122.406372,185.793335   C107.657684,177.354813 101.272758,163.884369 99.966316,147.419052   C99.683372,143.852982 99.739258,139.974396 94.905388,138.326431   C87.843048,135.918732 81.037582,132.762558 74.100159,129.981461   C70.258347,128.441345 66.370811,127.015228 62.000000,125.345192   C62.000000,148.642685 62.000000,170.821335 62.000000,193.000000   C57.643101,193.000000 53.286201,193.000000 48.468750,192.531372   C48.012016,169.578629 47.881927,147.093048 48.127117,124.611588   C48.179207,119.835701 46.618504,118.585976 42.096397,118.813004   C35.118923,119.163300 28.110920,118.905350 21.115866,118.905380   C17.757198,118.905396 14.398532,118.905380 10.555532,118.905380   C16.989309,106.028358 23.025257,93.947586 28.207592,83.575294   C19.440380,74.233116 11.135374,65.383453 2.467418,56.147041   C15.373601,52.300484 27.655132,48.640099 40.175705,44.961399   C40.703251,44.862667 40.991749,44.782249 41.280251,44.701828   C40.956470,44.472473 40.632690,44.243114 40.218113,43.552177   C40.193539,30.055984 40.259762,17.021370 40.623672,3.939001   C41.657566,3.578282 42.393772,3.265317 43.459965,3.082356   C56.370678,11.464345 68.908913,19.782658 81.577515,27.897451   C83.497581,29.127335 86.011986,29.988712 88.271400,30.034355   C99.091835,30.252947 109.919121,30.132027 120.743973,30.131989   C129.139725,30.131958 129.058014,30.101763 132.062958,22.011696   C134.454132,15.574071 137.076584,9.222359 139.596359,2.832508   C140.007706,2.818691 140.419067,2.804873 140.830414,2.791056   C144.057846,11.288542 147.285278,19.786028 150.639999,28.618658   C151.876114,27.895048 152.714752,27.469301 153.485062,26.943480   C166.442963,18.098284 184.989929,23.548101 187.540527,41.166763   C189.417221,54.130333 187.908752,67.583961 187.908752,81.514145   C183.839844,78.904160 180.362213,76.732483 176.947250,74.466408   C173.498154,72.177689 170.111160,69.795380 165.964661,66.951904   C165.964661,71.980980 165.964661,75.611015 165.964661,80.756119   C160.863281,76.068230 156.601288,72.151695 151.382278,67.355721   C151.111526,72.206726 150.894836,76.089157 150.602905,81.319450   C146.881607,76.943550 144.012741,73.570038 141.763748,70.925446   C134.483383,71.655891 136.489288,76.688774 135.796463,79.842484   C132.152908,80.233788 132.368637,73.444595 128.041046,76.467865   C125.405670,78.308952 122.797668,80.209114 120.341454,82.277588   C119.269356,83.180443 118.807137,84.817398 117.722748,85.693901   C114.674767,88.157570 115.972061,90.623314 117.552742,93.005020   C124.509430,103.487083 134.997620,108.639091 146.798752,110.841873   C153.751816,112.139717 160.887238,112.104012 166.831665,106.159485   C170.305206,102.685898 175.158020,100.591553 179.949417,97.518066   C179.949417,99.924500 180.205368,101.612923 179.906631,103.196716   C178.324219,111.586243 176.380890,119.912865 174.989975,128.331894   C173.546478,137.069244 170.227280,144.603424 162.749695,149.734421   C156.124908,154.280243 149.083618,157.524857 140.723267,154.976990   C132.227768,152.387939 123.734619,149.791229 114.757385,147.050385   C115.073746,156.920273 118.525650,164.958344 126.273697,171.013229   C132.476776,175.860748 139.658707,177.974487 147.379562,178.114624   C150.345947,178.168472 151.115585,179.218109 151.003052,181.928436   C150.850067,185.612640 150.987244,189.308914 151.000000,193.000000  M72.666924,113.969597   C83.839798,118.521149 94.942711,123.255081 106.204597,127.574570   C118.218872,132.182632 130.367554,136.443268 142.487854,140.770752   C150.434906,143.608215 161.137268,133.976105 159.755463,126.430145   C154.507782,125.925201 149.238129,125.740524 144.086899,124.861679   C128.991501,122.286247 116.124046,115.708878 106.682632,103.231598   C99.280624,93.449478 99.225929,84.562614 106.218452,76.170448   C115.193275,65.399200 126.798004,58.993992 140.224777,56.226135   C150.040344,54.202709 160.110306,53.332226 170.103134,52.298477   C173.159225,51.982330 174.424881,50.901814 174.010742,48.027832   C173.436142,44.040546 173.033539,39.860420 168.616562,37.924305   C164.375122,36.065136 161.507965,38.581459 159.201080,41.469280   C156.858963,44.401199 154.095245,44.906967 150.591095,44.884167   C129.443497,44.746552 108.293083,44.680817 87.147194,44.914982   C82.161980,44.970188 78.142006,43.826698 74.121513,40.820992   C68.185898,36.383537 61.754948,32.608658 54.863590,28.113731   C54.863590,37.054596 54.999477,44.875824 54.741173,52.684010   C54.693394,54.128304 53.335571,56.392082 52.102100,56.790417   C45.472672,58.931355 38.691460,60.602287 31.206282,62.641556   C35.587532,67.376404 39.219219,72.115089 43.685333,75.858177   C46.980820,78.620155 46.118492,80.892738 44.716080,83.702866   C41.403831,90.339912 38.055302,96.958855 34.268452,104.485474   C40.468369,104.485474 46.039776,103.390747 50.935318,104.742943   C58.215500,106.753799 65.017906,110.494415 72.666924,113.969597  z"/>
</svg>